{
	"asset":{
		"generator":"Khronos glTF Blender I/O v4.5.47",
		"version":"2.0"
	},
	"scene":0,
	"scenes":[
		{
			"name":"Scene",
			"nodes":[
				0
			]
		}
	],
	"nodes":[
		{
			"mesh":0,
			"name":"computer"
		}
	],
	"meshes":[
		{
			"name":"computerMesh",
			"primitives":[
				{
					"attributes":{
						"POSITION":0
					},
					"indices":1,
					"mode":1
				}
			]
		}
	],
	"accessors":[
		{
			"bufferView":0,
			"componentType":5126,
			"count":3124,
			"max":[
				2.3327250480651855,
				2.480595588684082,
				1.0492165088653564
			],
			"min":[
				-2.267406940460205,
				-2.4617462158203125,
				-1.049216389656067
			],
			"type":"VEC3"
		},
		{
			"bufferView":1,
			"componentType":5123,
			"count":8696,
			"type":"SCALAR"
		}
	],
	"bufferViews":[
		{
			"buffer":0,
			"byteLength":37488,
			"byteOffset":0,
			"target":34962
		},
		{
			"buffer":0,
			"byteLength":17392,
			"byteOffset":37488,
			"target":34963
		}
	],
	"buffers":[
		{
			"byteLength":54880,
			"uri":"wireframe-computer.bin"
		}
	]
}
